<svg xmlns="http://www.w3.org/2000/svg" viewBox="0 0 24 22" width="24" height="22">
	<defs>
		<linearGradient id="grd1" gradientUnits="userSpaceOnUse"  x1="1.499" y1="0.997" x2="22.499" y2="21.997">
			<stop offset="0" stop-color="#f33573"  />
			<stop offset="1" stop-color="#ffbf65"  />
		</linearGradient>
	</defs>
	<style>
		tspan { white-space:pre }
		.shp0 { fill: url(#grd1) } 
	</style>
	<path id="Inbox Icon" class="shp0" d="M20.99 22L3.01 22C1.35 22 0.01 20.67 0 19.01L0 11.5C0 11.34 0.03 11.18 0.07 11.02L2.84 2.73C3.21 1.7 4.18 1.01 5.27 1L18.74 1C19.83 1.01 20.79 1.7 21.16 2.73L23.92 11.02C23.97 11.17 24 11.34 24 11.5L24 19.01C23.99 20.67 22.64 22 20.99 22ZM18.42 4L5.58 4L3.58 10L7.76 10C7.94 10 8.12 10.04 8.28 10.1C8.34 10.12 8.39 10.15 8.43 10.18C8.54 10.23 8.64 10.3 8.73 10.38C8.78 10.42 8.82 10.46 8.86 10.5C8.94 10.6 9.02 10.7 9.07 10.82C9.1 10.86 9.12 10.91 9.15 10.95C9.15 10.97 9.16 10.98 9.17 11C9.59 12.2 10.73 13 12 13C13.27 13 14.41 12.2 14.83 11C14.83 10.98 14.85 10.97 14.85 10.95C14.88 10.91 14.9 10.86 14.93 10.82C14.98 10.7 15.06 10.6 15.14 10.5C15.18 10.46 15.22 10.42 15.27 10.38C15.36 10.3 15.46 10.23 15.57 10.18L15.72 10.1C15.88 10.04 16.06 10 16.24 10L20.42 10L18.42 4ZM21 13L17.19 13C16.12 14.85 14.14 16 12 16C9.86 16 7.88 14.85 6.81 13L3 13L3 19.01C3 19 3 19 3.01 19L20.99 19C21 19 21 19 21 19.01L21 13Z" />
</svg>