<svg xmlns="http://www.w3.org/2000/svg" viewBox="0 0 25 25" width="25" height="25">
	<defs>
		<linearGradient id="grd1" gradientUnits="userSpaceOnUse"  x1="0" y1="0.002" x2="24" y2="24.001">
			<stop offset="0" stop-color="#7955eb"  />
			<stop offset="1" stop-color="#2fb9f7"  />
		</linearGradient>
	</defs>
	<style>
		tspan { white-space:pre }
		.shp0 { fill: url(#grd1) } 
	</style>
	<path id="Reload Icon" class="shp0" d="M23.26 9L16.46 9C15.63 9 15.43 8.53 16.03 7.94L18.34 5.64C16.7 4.01 14.44 3 11.95 3C7.35 3 3.55 6.43 2.99 10.85C2.99 10.85 2.81 12 1.51 12C0.67 12 0 11.33 0 10.5C0 10.39 0.01 10.28 0.04 10.17C0.92 4.41 5.92 0 11.95 0C15.28 0 18.29 1.34 20.47 3.52L22.94 1.06C23.53 0.47 24 0.68 24 1.49L24 8.27C24 8.67 23.66 9 23.26 9ZM0.74 15L7.55 15L7.55 15C8.37 15 8.57 15.47 7.97 16.07L5.66 18.37C7.3 20 9.56 21 12.05 21C16.66 21 20.45 17.58 21.02 13.15C21.02 13.15 21.19 12 22.5 12C23.32 12 24 12.67 24 13.5C24 13.62 23.99 13.73 23.96 13.83C23.08 19.59 18.08 24 12.05 24C8.72 24 5.71 22.66 3.53 20.49L1.06 22.95C0.47 23.53 0 23.33 0 22.51L0 15.74C0 15.33 0.34 15 0.74 15Z" />
</svg>